<svg width="178" height="30" viewBox="0 0 178 30" fill="none" xmlns="http://www.w3.org/2000/svg">
<path d="M13.3144 20.976L12.9464 24H0.626375L3.45837 0.959999H7.05838L4.59438 20.976H13.3144ZM25.8381 9.984C25.6568 9.96267 25.4755 9.94667 25.2941 9.936C25.1235 9.92533 24.9475 9.92 24.7661 9.92C23.8488 9.92 22.9848 10.1333 22.1741 10.56C21.3741 10.9867 20.6755 11.5627 20.0781 12.288C19.4915 13.0133 19.0275 13.856 18.6861 14.816C18.3448 15.7653 18.1741 16.768 18.1741 17.824C18.1741 19.04 18.3661 19.9413 18.7501 20.528C19.1448 21.104 19.6995 21.392 20.4141 21.392C20.8941 21.392 21.3635 21.2373 21.8221 20.928C22.2808 20.608 22.7128 20.176 23.1181 19.632C23.5341 19.0773 23.9181 18.4267 24.2701 17.68C24.6221 16.9333 24.9261 16.1227 25.1821 15.248L25.8381 9.984ZM24.7501 20.192C24.3768 20.8107 23.9768 21.3707 23.5501 21.872C23.1341 22.3627 22.6915 22.784 22.2221 23.136C21.7528 23.488 21.2568 23.76 20.7341 23.952C20.2115 24.144 19.6675 24.24 19.1021 24.24C18.4728 24.24 17.8915 24.1173 17.3581 23.872C16.8248 23.6267 16.3661 23.2587 15.9821 22.768C15.5981 22.2773 15.2941 21.6747 15.0701 20.96C14.8568 20.2347 14.7501 19.3973 14.7501 18.448C14.7501 17.4773 14.8728 16.5333 15.1181 15.616C15.3635 14.688 15.7101 13.8187 16.1581 13.008C16.6061 12.1867 17.1448 11.4347 17.7741 10.752C18.4035 10.0693 19.1075 9.48267 19.8861 8.992C20.6648 8.50133 21.5021 8.12267 22.3981 7.856C23.3048 7.57867 24.2541 7.44 25.2461 7.44C25.9608 7.44 26.6701 7.49867 27.3741 7.616C28.0781 7.72267 28.7661 7.91467 29.4381 8.192L27.4861 24H25.6781C25.2408 24 24.9421 23.888 24.7821 23.664C24.6221 23.44 24.5421 23.1627 24.5421 22.832L24.7501 20.192ZM51.9081 20.976L51.5401 24H39.2201L42.0521 0.959999H45.6521L43.1881 20.976H51.9081ZM64.4319 9.984C64.2505 9.96267 64.0692 9.94667 63.8879 9.936C63.7172 9.92533 63.5412 9.92 63.3599 9.92C62.4425 9.92 61.5785 10.1333 60.7679 10.56C59.9679 10.9867 59.2692 11.5627 58.6719 12.288C58.0852 13.0133 57.6212 13.856 57.2799 14.816C56.9385 15.7653 56.7679 16.768 56.7679 17.824C56.7679 19.04 56.9599 19.9413 57.3439 20.528C57.7385 21.104 58.2932 21.392 59.0079 21.392C59.4879 21.392 59.9572 21.2373 60.4159 20.928C60.8745 20.608 61.3065 20.176 61.7119 19.632C62.1279 19.0773 62.5119 18.4267 62.8639 17.68C63.2159 16.9333 63.5199 16.1227 63.7759 15.248L64.4319 9.984ZM63.3439 20.192C62.9705 20.8107 62.5705 21.3707 62.1439 21.872C61.7279 22.3627 61.2852 22.784 60.8159 23.136C60.3465 23.488 59.8505 23.76 59.3279 23.952C58.8052 24.144 58.2612 24.24 57.6959 24.24C57.0665 24.24 56.4852 24.1173 55.9519 23.872C55.4185 23.6267 54.9599 23.2587 54.5759 22.768C54.1919 22.2773 53.8879 21.6747 53.6639 20.96C53.4505 20.2347 53.3439 19.3973 53.3439 18.448C53.3439 17.4773 53.4665 16.5333 53.7119 15.616C53.9572 14.688 54.3039 13.8187 54.7519 13.008C55.1999 12.1867 55.7385 11.4347 56.3679 10.752C56.9972 10.0693 57.7012 9.48267 58.4799 8.992C59.2585 8.50133 60.0959 8.12267 60.9919 7.856C61.8985 7.57867 62.8479 7.44 63.8399 7.44C64.5545 7.44 65.2639 7.49867 65.9679 7.616C66.6719 7.72267 67.3599 7.91467 68.0319 8.192L66.0799 24H64.2719C63.8345 24 63.5359 23.888 63.3759 23.664C63.2159 23.44 63.1359 23.1627 63.1359 22.832L63.3439 20.192ZM85.4111 7.68L74.5151 28.672C74.2591 29.1733 73.8805 29.424 73.3791 29.424H70.8351L74.4191 22.864L70.2591 7.68H73.1071C73.3738 7.68 73.5711 7.74933 73.6991 7.888C73.8271 8.016 73.9125 8.17067 73.9551 8.352L76.2591 17.616C76.3125 17.8613 76.3551 18.112 76.3871 18.368C76.4298 18.624 76.4618 18.8747 76.4831 19.12C76.5898 18.864 76.6965 18.6133 76.8031 18.368C76.9205 18.112 77.0378 17.856 77.1551 17.6L81.7151 8.336C81.8111 8.144 81.9445 7.98933 82.1151 7.872C82.2965 7.744 82.4831 7.68 82.6751 7.68H85.4111ZM94.4386 24.208C94.4386 23.8133 94.3906 23.4453 94.2946 23.104C92.9506 22.88 91.7986 22.7893 90.8386 22.832C89.8893 22.864 89.1053 22.992 88.4866 23.216C87.868 23.44 87.4146 23.728 87.1266 24.08C86.8386 24.4427 86.6946 24.832 86.6946 25.248C86.6946 25.9413 86.9826 26.4693 87.5586 26.832C88.1346 27.1947 88.9826 27.376 90.1026 27.376C90.7533 27.376 91.3453 27.2907 91.8786 27.12C92.412 26.96 92.8653 26.736 93.2386 26.448C93.6226 26.16 93.916 25.824 94.1186 25.44C94.332 25.056 94.4386 24.6453 94.4386 24.208ZM91.5746 16.48C92.0973 16.48 92.556 16.3627 92.9506 16.128C93.356 15.8933 93.692 15.584 93.9586 15.2C94.236 14.816 94.444 14.384 94.5826 13.904C94.732 13.4133 94.812 12.9227 94.8226 12.432C94.8226 11.568 94.6093 10.912 94.1826 10.464C93.756 10.016 93.1586 9.792 92.3906 9.792C91.868 9.792 91.4093 9.904 91.0146 10.128C90.62 10.3413 90.284 10.6347 90.0066 11.008C89.74 11.3707 89.5373 11.792 89.3986 12.272C89.26 12.7413 89.1906 13.232 89.1906 13.744C89.1906 14.6187 89.3933 15.296 89.7986 15.776C90.2146 16.2453 90.8066 16.48 91.5746 16.48ZM100.423 8.256L100.279 9.392C100.215 9.86133 99.9746 10.1653 99.5586 10.304L97.7506 10.704C97.8146 10.9493 97.8626 11.2053 97.8946 11.472C97.9373 11.728 97.9586 12.0053 97.9586 12.304C97.9586 12.816 97.9 13.2747 97.7826 13.68C97.6653 14.0853 97.5213 14.464 97.3506 14.816C97.18 15.1573 96.9933 15.4827 96.7906 15.792C96.5986 16.1013 96.4173 16.4107 96.2466 16.72C96.0866 17.0293 95.948 17.3547 95.8306 17.696C95.724 18.0267 95.6706 18.3893 95.6706 18.784C95.6706 19.2213 95.7666 19.6267 95.9586 20C96.1613 20.3627 96.38 20.7413 96.6146 21.136C96.86 21.52 97.0786 21.936 97.2706 22.384C97.4733 22.832 97.5746 23.3493 97.5746 23.936C97.564 24.7253 97.3773 25.472 97.0146 26.176C96.6626 26.88 96.1506 27.4987 95.4786 28.032C94.8173 28.5653 94.0066 28.9867 93.0466 29.296C92.0973 29.616 91.02 29.776 89.8146 29.776C88.844 29.776 87.964 29.6747 87.1746 29.472C86.3853 29.2693 85.7133 28.9867 85.1586 28.624C84.604 28.2613 84.1773 27.8293 83.8786 27.328C83.58 26.8267 83.4306 26.272 83.4306 25.664C83.4306 24.9493 83.5853 24.3253 83.8946 23.792C84.1933 23.248 84.5986 22.7893 85.1106 22.416C85.6226 22.032 86.2146 21.7227 86.8866 21.488C87.5586 21.2533 88.2626 21.0827 88.9986 20.976C89.7453 20.8693 90.4973 20.8267 91.2546 20.848C92.012 20.8587 92.732 20.9173 93.4146 21.024C93.3506 20.8427 93.2973 20.656 93.2546 20.464C93.212 20.272 93.1906 20.0693 93.1906 19.856C93.1906 19.536 93.2333 19.2053 93.3186 18.864C93.4146 18.512 93.564 18.1333 93.7666 17.728C93.3613 18.0053 92.9026 18.2187 92.3906 18.368C91.8893 18.5173 91.2973 18.592 90.6146 18.592C89.996 18.592 89.4093 18.4907 88.8546 18.288C88.3 18.0853 87.8146 17.7813 87.3986 17.376C86.9826 16.9707 86.652 16.464 86.4066 15.856C86.172 15.248 86.0546 14.5333 86.0546 13.712C86.0546 12.9333 86.1986 12.1653 86.4866 11.408C86.7746 10.6507 87.2013 9.97867 87.7666 9.392C88.3426 8.80533 89.0466 8.33067 89.8786 7.968C90.7213 7.60533 91.6866 7.424 92.7746 7.424C93.372 7.424 93.932 7.49333 94.4546 7.632C94.988 7.77067 95.4733 7.97867 95.9106 8.256H100.423ZM116.124 7.68L114.156 24H112.444C111.612 24 111.196 23.5947 111.196 22.784L111.356 20.432C110.524 21.7013 109.591 22.656 108.556 23.296C107.532 23.9253 106.476 24.24 105.388 24.24C104.705 24.24 104.097 24.1067 103.564 23.84C103.031 23.5627 102.593 23.1627 102.252 22.64C101.911 22.1067 101.676 21.456 101.548 20.688C101.42 19.92 101.415 19.04 101.532 18.048L102.764 7.68H106.188L104.956 18.048C104.807 19.2107 104.871 20.0587 105.148 20.592C105.436 21.1253 105.948 21.392 106.684 21.392C107.132 21.392 107.596 21.2693 108.076 21.024C108.556 20.768 109.02 20.4107 109.468 19.952C109.916 19.4933 110.332 18.9387 110.716 18.288C111.1 17.6373 111.425 16.912 111.692 16.112L112.7 7.68H116.124ZM128.785 10.544C128.689 10.6933 128.588 10.8 128.481 10.864C128.385 10.928 128.262 10.96 128.113 10.96C127.942 10.96 127.766 10.9067 127.585 10.8C127.404 10.6827 127.185 10.5547 126.929 10.416C126.684 10.2773 126.39 10.1547 126.049 10.048C125.708 9.93067 125.297 9.872 124.817 9.872C124.369 9.872 123.964 9.93067 123.601 10.048C123.249 10.1653 122.945 10.3253 122.689 10.528C122.433 10.7307 122.236 10.9707 122.097 11.248C121.969 11.5253 121.905 11.8187 121.905 12.128C121.905 12.48 121.996 12.7787 122.177 13.024C122.369 13.2587 122.62 13.4667 122.929 13.648C123.238 13.8293 123.59 13.9947 123.985 14.144C124.38 14.2933 124.78 14.448 125.185 14.608C125.601 14.768 126.006 14.9547 126.401 15.168C126.796 15.3707 127.148 15.6213 127.457 15.92C127.766 16.208 128.012 16.56 128.193 16.976C128.385 17.392 128.481 17.888 128.481 18.464C128.481 19.232 128.326 19.968 128.017 20.672C127.718 21.376 127.281 21.9947 126.705 22.528C126.14 23.0507 125.452 23.472 124.641 23.792C123.841 24.1013 122.945 24.256 121.953 24.256C120.918 24.256 119.98 24.0693 119.137 23.696C118.305 23.312 117.638 22.832 117.137 22.256L117.985 20.944C118.092 20.784 118.214 20.6613 118.353 20.576C118.492 20.48 118.662 20.432 118.865 20.432C119.057 20.432 119.244 20.5067 119.425 20.656C119.606 20.7947 119.82 20.9547 120.065 21.136C120.321 21.3067 120.63 21.4667 120.993 21.616C121.356 21.7547 121.825 21.824 122.401 21.824C122.881 21.824 123.308 21.76 123.681 21.632C124.054 21.4933 124.369 21.3067 124.625 21.072C124.881 20.8373 125.078 20.5653 125.217 20.256C125.356 19.9467 125.425 19.6213 125.425 19.28C125.425 18.896 125.329 18.576 125.137 18.32C124.956 18.064 124.71 17.8453 124.401 17.664C124.092 17.472 123.74 17.3067 123.345 17.168C122.961 17.0293 122.561 16.8853 122.145 16.736C121.74 16.5867 121.34 16.416 120.945 16.224C120.561 16.032 120.214 15.792 119.905 15.504C119.596 15.216 119.345 14.8693 119.153 14.464C118.972 14.048 118.881 13.5413 118.881 12.944C118.881 12.24 119.02 11.5573 119.297 10.896C119.574 10.224 119.974 9.632 120.497 9.12C121.02 8.608 121.66 8.19733 122.417 7.888C123.174 7.57867 124.038 7.424 125.009 7.424C126.022 7.424 126.913 7.59467 127.681 7.936C128.46 8.27733 129.121 8.73067 129.665 9.296L128.785 10.544ZM136.011 10.832C136.832 9.70133 137.728 8.85333 138.699 8.288C139.67 7.712 140.667 7.424 141.691 7.424C142.384 7.424 142.998 7.56267 143.531 7.84C144.075 8.10667 144.518 8.50667 144.859 9.04C145.2 9.56267 145.435 10.208 145.563 10.976C145.691 11.744 145.691 12.624 145.563 13.616L144.347 24H140.923L142.139 13.616C142.288 12.4533 142.224 11.6053 141.947 11.072C141.67 10.528 141.158 10.256 140.411 10.256C139.963 10.256 139.499 10.384 139.019 10.64C138.55 10.8853 138.096 11.2373 137.659 11.696C137.222 12.144 136.806 12.6933 136.411 13.344C136.027 13.984 135.702 14.6987 135.435 15.488L134.411 24H130.987L133.851 0.32H137.275L136.011 10.832ZM154.368 0.32L152.688 14.048H153.136C153.371 14.048 153.557 14.016 153.696 13.952C153.845 13.8773 154.005 13.744 154.176 13.552L159.008 8.32C159.179 8.10667 159.355 7.94667 159.536 7.84C159.728 7.73333 159.963 7.68 160.24 7.68H163.296L157.472 13.888C157.141 14.2933 156.773 14.6187 156.368 14.864C156.549 15.0133 156.704 15.184 156.832 15.376C156.971 15.568 157.099 15.7813 157.216 16.016L161.648 24H158.688C158.421 24 158.203 23.9573 158.032 23.872C157.861 23.776 157.723 23.6053 157.616 23.36L153.984 16.96C153.867 16.7147 153.739 16.56 153.6 16.496C153.461 16.4213 153.243 16.384 152.944 16.384H152.4L151.472 24H148.08L150.992 0.32H154.368ZM173.994 9.984C173.813 9.96267 173.632 9.94667 173.45 9.936C173.28 9.92533 173.104 9.92 172.922 9.92C172.005 9.92 171.141 10.1333 170.33 10.56C169.53 10.9867 168.832 11.5627 168.234 12.288C167.648 13.0133 167.184 13.856 166.842 14.816C166.501 15.7653 166.33 16.768 166.33 17.824C166.33 19.04 166.522 19.9413 166.906 20.528C167.301 21.104 167.856 21.392 168.57 21.392C169.05 21.392 169.52 21.2373 169.978 20.928C170.437 20.608 170.869 20.176 171.274 19.632C171.69 19.0773 172.074 18.4267 172.426 17.68C172.778 16.9333 173.082 16.1227 173.338 15.248L173.994 9.984ZM172.906 20.192C172.533 20.8107 172.133 21.3707 171.706 21.872C171.29 22.3627 170.848 22.784 170.378 23.136C169.909 23.488 169.413 23.76 168.89 23.952C168.368 24.144 167.824 24.24 167.258 24.24C166.629 24.24 166.048 24.1173 165.514 23.872C164.981 23.6267 164.522 23.2587 164.138 22.768C163.754 22.2773 163.45 21.6747 163.226 20.96C163.013 20.2347 162.906 19.3973 162.906 18.448C162.906 17.4773 163.029 16.5333 163.274 15.616C163.52 14.688 163.866 13.8187 164.314 13.008C164.762 12.1867 165.301 11.4347 165.93 10.752C166.56 10.0693 167.264 9.48267 168.042 8.992C168.821 8.50133 169.658 8.12267 170.554 7.856C171.461 7.57867 172.41 7.44 173.402 7.44C174.117 7.44 174.826 7.49867 175.53 7.616C176.234 7.72267 176.922 7.91467 177.594 8.192L175.642 24H173.834C173.397 24 173.098 23.888 172.938 23.664C172.778 23.44 172.698 23.1627 172.698 22.832L172.906 20.192Z" fill="#101311"/>
</svg>
