<svg width="134" height="23" viewBox="0 0 134 23" fill="none" xmlns="http://www.w3.org/2000/svg">
<path d="M10.2358 15.732L9.95978 18H0.719781L2.84378 0.719999H5.54378L3.69578 15.732H10.2358ZM19.6286 7.488C19.4926 7.472 19.3566 7.46 19.2206 7.452C19.0926 7.444 18.9606 7.44 18.8246 7.44C18.1366 7.44 17.4886 7.6 16.8806 7.92C16.2806 8.24 15.7566 8.672 15.3086 9.216C14.8686 9.76 14.5206 10.392 14.2646 11.112C14.0086 11.824 13.8806 12.576 13.8806 13.368C13.8806 14.28 14.0246 14.956 14.3126 15.396C14.6086 15.828 15.0246 16.044 15.5606 16.044C15.9206 16.044 16.2726 15.928 16.6166 15.696C16.9606 15.456 17.2846 15.132 17.5886 14.724C17.9006 14.308 18.1886 13.82 18.4526 13.26C18.7166 12.7 18.9446 12.092 19.1366 11.436L19.6286 7.488ZM18.8126 15.144C18.5326 15.608 18.2326 16.028 17.9126 16.404C17.6006 16.772 17.2686 17.088 16.9166 17.352C16.5646 17.616 16.1926 17.82 15.8006 17.964C15.4086 18.108 15.0006 18.18 14.5766 18.18C14.1046 18.18 13.6686 18.088 13.2686 17.904C12.8686 17.72 12.5246 17.444 12.2366 17.076C11.9486 16.708 11.7206 16.256 11.5526 15.72C11.3926 15.176 11.3126 14.548 11.3126 13.836C11.3126 13.108 11.4046 12.4 11.5886 11.712C11.7726 11.016 12.0326 10.364 12.3686 9.756C12.7046 9.14 13.1086 8.576 13.5806 8.064C14.0526 7.552 14.5806 7.112 15.1646 6.744C15.7486 6.376 16.3766 6.092 17.0486 5.892C17.7286 5.684 18.4406 5.58 19.1846 5.58C19.7206 5.58 20.2526 5.624 20.7806 5.712C21.3086 5.792 21.8246 5.936 22.3286 6.144L20.8646 18H19.5086C19.1806 18 18.9566 17.916 18.8366 17.748C18.7166 17.58 18.6566 17.372 18.6566 17.124L18.8126 15.144ZM39.1811 15.732L38.9051 18H29.6651L31.7891 0.719999H34.4891L32.6411 15.732H39.1811ZM48.5739 7.488C48.4379 7.472 48.3019 7.46 48.1659 7.452C48.0379 7.444 47.9059 7.44 47.7699 7.44C47.0819 7.44 46.4339 7.6 45.8259 7.92C45.2259 8.24 44.7019 8.672 44.2539 9.216C43.8139 9.76 43.4659 10.392 43.2099 11.112C42.9539 11.824 42.8259 12.576 42.8259 13.368C42.8259 14.28 42.9699 14.956 43.2579 15.396C43.5539 15.828 43.9699 16.044 44.5059 16.044C44.8659 16.044 45.2179 15.928 45.5619 15.696C45.9059 15.456 46.2299 15.132 46.5339 14.724C46.8459 14.308 47.1339 13.82 47.3979 13.26C47.6619 12.7 47.8899 12.092 48.0819 11.436L48.5739 7.488ZM47.7579 15.144C47.4779 15.608 47.1779 16.028 46.8579 16.404C46.5459 16.772 46.2139 17.088 45.8619 17.352C45.5099 17.616 45.1379 17.82 44.7459 17.964C44.3539 18.108 43.9459 18.18 43.5219 18.18C43.0499 18.18 42.6139 18.088 42.2139 17.904C41.8139 17.72 41.4699 17.444 41.1819 17.076C40.8939 16.708 40.6659 16.256 40.4979 15.72C40.3379 15.176 40.2579 14.548 40.2579 13.836C40.2579 13.108 40.3499 12.4 40.5339 11.712C40.7179 11.016 40.9779 10.364 41.3139 9.756C41.6499 9.14 42.0539 8.576 42.5259 8.064C42.9979 7.552 43.5259 7.112 44.1099 6.744C44.6939 6.376 45.3219 6.092 45.9939 5.892C46.6739 5.684 47.3859 5.58 48.1299 5.58C48.6659 5.58 49.1979 5.624 49.7259 5.712C50.2539 5.792 50.7699 5.936 51.2739 6.144L49.8099 18H48.4539C48.1259 18 47.9019 17.916 47.7819 17.748C47.6619 17.58 47.6019 17.372 47.6019 17.124L47.7579 15.144ZM64.3083 5.76L56.1363 21.504C55.9443 21.88 55.6603 22.068 55.2843 22.068H53.3763L56.0643 17.148L52.9443 5.76H55.0803C55.2803 5.76 55.4283 5.812 55.5243 5.916C55.6203 6.012 55.6843 6.128 55.7163 6.264L57.4443 13.212C57.4843 13.396 57.5163 13.584 57.5403 13.776C57.5723 13.968 57.5963 14.156 57.6123 14.34C57.6923 14.148 57.7723 13.96 57.8523 13.776C57.9403 13.584 58.0283 13.392 58.1163 13.2L61.5363 6.252C61.6083 6.108 61.7083 5.992 61.8363 5.904C61.9723 5.808 62.1123 5.76 62.2563 5.76H64.3083ZM71.079 18.156C71.079 17.86 71.043 17.584 70.971 17.328C69.963 17.16 69.099 17.092 68.379 17.124C67.667 17.148 67.079 17.244 66.615 17.412C66.151 17.58 65.811 17.796 65.595 18.06C65.379 18.332 65.271 18.624 65.271 18.936C65.271 19.456 65.487 19.852 65.919 20.124C66.351 20.396 66.987 20.532 67.827 20.532C68.315 20.532 68.759 20.468 69.159 20.34C69.559 20.22 69.899 20.052 70.179 19.836C70.467 19.62 70.687 19.368 70.839 19.08C70.999 18.792 71.079 18.484 71.079 18.156ZM68.931 12.36C69.323 12.36 69.667 12.272 69.963 12.096C70.267 11.92 70.519 11.688 70.719 11.4C70.927 11.112 71.083 10.788 71.187 10.428C71.299 10.06 71.359 9.692 71.367 9.324C71.367 8.676 71.207 8.184 70.887 7.848C70.567 7.512 70.119 7.344 69.543 7.344C69.151 7.344 68.807 7.428 68.511 7.596C68.215 7.756 67.963 7.976 67.755 8.256C67.555 8.528 67.403 8.844 67.299 9.204C67.195 9.556 67.143 9.924 67.143 10.308C67.143 10.964 67.295 11.472 67.599 11.832C67.911 12.184 68.355 12.36 68.931 12.36ZM75.567 6.192L75.459 7.044C75.411 7.396 75.231 7.624 74.919 7.728L73.563 8.028C73.611 8.212 73.647 8.404 73.671 8.604C73.703 8.796 73.719 9.004 73.719 9.228C73.719 9.612 73.675 9.956 73.587 10.26C73.499 10.564 73.391 10.848 73.263 11.112C73.135 11.368 72.995 11.612 72.843 11.844C72.699 12.076 72.563 12.308 72.435 12.54C72.315 12.772 72.211 13.016 72.123 13.272C72.043 13.52 72.003 13.792 72.003 14.088C72.003 14.416 72.075 14.72 72.219 15C72.371 15.272 72.535 15.556 72.711 15.852C72.895 16.14 73.059 16.452 73.203 16.788C73.355 17.124 73.431 17.512 73.431 17.952C73.423 18.544 73.283 19.104 73.011 19.632C72.747 20.16 72.363 20.624 71.859 21.024C71.363 21.424 70.755 21.74 70.035 21.972C69.323 22.212 68.515 22.332 67.611 22.332C66.883 22.332 66.223 22.256 65.631 22.104C65.039 21.952 64.535 21.74 64.119 21.468C63.703 21.196 63.383 20.872 63.159 20.496C62.935 20.12 62.823 19.704 62.823 19.248C62.823 18.712 62.939 18.244 63.171 17.844C63.395 17.436 63.699 17.092 64.083 16.812C64.467 16.524 64.911 16.292 65.415 16.116C65.919 15.94 66.447 15.812 66.999 15.732C67.559 15.652 68.123 15.62 68.691 15.636C69.259 15.644 69.799 15.688 70.311 15.768C70.263 15.632 70.223 15.492 70.191 15.348C70.159 15.204 70.143 15.052 70.143 14.892C70.143 14.652 70.175 14.404 70.239 14.148C70.311 13.884 70.423 13.6 70.575 13.296C70.271 13.504 69.927 13.664 69.543 13.776C69.167 13.888 68.723 13.944 68.211 13.944C67.747 13.944 67.307 13.868 66.891 13.716C66.475 13.564 66.111 13.336 65.799 13.032C65.487 12.728 65.239 12.348 65.055 11.892C64.879 11.436 64.791 10.9 64.791 10.284C64.791 9.7 64.899 9.124 65.115 8.556C65.331 7.988 65.651 7.484 66.075 7.044C66.507 6.604 67.035 6.248 67.659 5.976C68.291 5.704 69.015 5.568 69.831 5.568C70.279 5.568 70.699 5.62 71.091 5.724C71.491 5.828 71.855 5.984 72.183 6.192H75.567ZM87.3429 5.76L85.8669 18H84.5829C83.9589 18 83.6469 17.696 83.6469 17.088L83.7669 15.324C83.1429 16.276 82.4429 16.992 81.6669 17.472C80.8989 17.944 80.1069 18.18 79.2909 18.18C78.7789 18.18 78.3229 18.08 77.9229 17.88C77.5229 17.672 77.1949 17.372 76.9389 16.98C76.6829 16.58 76.5069 16.092 76.4109 15.516C76.3149 14.94 76.3109 14.28 76.3989 13.536L77.3229 5.76H79.8909L78.9669 13.536C78.8549 14.408 78.9029 15.044 79.1109 15.444C79.3269 15.844 79.7109 16.044 80.2629 16.044C80.5989 16.044 80.9469 15.952 81.3069 15.768C81.6669 15.576 82.0149 15.308 82.3509 14.964C82.6869 14.62 82.9989 14.204 83.2869 13.716C83.5749 13.228 83.8189 12.684 84.0189 12.084L84.7749 5.76H87.3429ZM96.8387 7.908C96.7667 8.02 96.6907 8.1 96.6107 8.148C96.5387 8.196 96.4467 8.22 96.3347 8.22C96.2067 8.22 96.0747 8.18 95.9387 8.1C95.8027 8.012 95.6387 7.916 95.4467 7.812C95.2627 7.708 95.0427 7.616 94.7867 7.536C94.5307 7.448 94.2227 7.404 93.8627 7.404C93.5267 7.404 93.2227 7.448 92.9507 7.536C92.6867 7.624 92.4587 7.744 92.2667 7.896C92.0747 8.048 91.9267 8.228 91.8227 8.436C91.7267 8.644 91.6787 8.864 91.6787 9.096C91.6787 9.36 91.7467 9.584 91.8827 9.768C92.0267 9.944 92.2147 10.1 92.4467 10.236C92.6787 10.372 92.9427 10.496 93.2387 10.608C93.5347 10.72 93.8347 10.836 94.1387 10.956C94.4507 11.076 94.7547 11.216 95.0507 11.376C95.3467 11.528 95.6107 11.716 95.8427 11.94C96.0747 12.156 96.2587 12.42 96.3947 12.732C96.5387 13.044 96.6107 13.416 96.6107 13.848C96.6107 14.424 96.4947 14.976 96.2627 15.504C96.0387 16.032 95.7107 16.496 95.2787 16.896C94.8547 17.288 94.3387 17.604 93.7307 17.844C93.1307 18.076 92.4587 18.192 91.7147 18.192C90.9387 18.192 90.2347 18.052 89.6027 17.772C88.9787 17.484 88.4787 17.124 88.1027 16.692L88.7387 15.708C88.8187 15.588 88.9107 15.496 89.0147 15.432C89.1187 15.36 89.2467 15.324 89.3987 15.324C89.5427 15.324 89.6827 15.38 89.8187 15.492C89.9547 15.596 90.1147 15.716 90.2987 15.852C90.4907 15.98 90.7227 16.1 90.9947 16.212C91.2667 16.316 91.6187 16.368 92.0507 16.368C92.4107 16.368 92.7307 16.32 93.0107 16.224C93.2907 16.12 93.5267 15.98 93.7187 15.804C93.9107 15.628 94.0587 15.424 94.1627 15.192C94.2667 14.96 94.3187 14.716 94.3187 14.46C94.3187 14.172 94.2467 13.932 94.1027 13.74C93.9667 13.548 93.7827 13.384 93.5507 13.248C93.3187 13.104 93.0547 12.98 92.7587 12.876C92.4707 12.772 92.1707 12.664 91.8587 12.552C91.5547 12.44 91.2547 12.312 90.9587 12.168C90.6707 12.024 90.4107 11.844 90.1787 11.628C89.9467 11.412 89.7587 11.152 89.6147 10.848C89.4787 10.536 89.4107 10.156 89.4107 9.708C89.4107 9.18 89.5147 8.668 89.7227 8.172C89.9307 7.668 90.2307 7.224 90.6227 6.84C91.0147 6.456 91.4947 6.148 92.0627 5.916C92.6307 5.684 93.2787 5.568 94.0067 5.568C94.7667 5.568 95.4347 5.696 96.0107 5.952C96.5947 6.208 97.0907 6.548 97.4987 6.972L96.8387 7.908ZM102.258 8.124C102.874 7.276 103.546 6.64 104.274 6.216C105.002 5.784 105.75 5.568 106.518 5.568C107.038 5.568 107.498 5.672 107.898 5.88C108.306 6.08 108.638 6.38 108.894 6.78C109.15 7.172 109.326 7.656 109.422 8.232C109.518 8.808 109.518 9.468 109.422 10.212L108.51 18H105.942L106.854 10.212C106.966 9.34 106.918 8.704 106.71 8.304C106.502 7.896 106.118 7.692 105.558 7.692C105.222 7.692 104.874 7.788 104.514 7.98C104.162 8.164 103.822 8.428 103.494 8.772C103.166 9.108 102.854 9.52 102.558 10.008C102.27 10.488 102.026 11.024 101.826 11.616L101.058 18H98.4903L100.638 0.24H103.206L102.258 8.124ZM116.026 0.24L114.766 10.536H115.102C115.278 10.536 115.418 10.512 115.522 10.464C115.634 10.408 115.754 10.308 115.882 10.164L119.506 6.24C119.634 6.08 119.766 5.96 119.902 5.88C120.046 5.8 120.222 5.76 120.43 5.76H122.722L118.354 10.416C118.106 10.72 117.83 10.964 117.526 11.148C117.662 11.26 117.778 11.388 117.874 11.532C117.978 11.676 118.074 11.836 118.162 12.012L121.486 18H119.266C119.066 18 118.902 17.968 118.774 17.904C118.646 17.832 118.542 17.704 118.462 17.52L115.738 12.72C115.65 12.536 115.554 12.42 115.45 12.372C115.346 12.316 115.182 12.288 114.958 12.288H114.55L113.854 18H111.31L113.494 0.24H116.026ZM130.746 7.488C130.61 7.472 130.474 7.46 130.338 7.452C130.21 7.444 130.078 7.44 129.942 7.44C129.254 7.44 128.606 7.6 127.998 7.92C127.398 8.24 126.874 8.672 126.426 9.216C125.986 9.76 125.638 10.392 125.382 11.112C125.126 11.824 124.998 12.576 124.998 13.368C124.998 14.28 125.142 14.956 125.43 15.396C125.726 15.828 126.142 16.044 126.678 16.044C127.038 16.044 127.39 15.928 127.734 15.696C128.078 15.456 128.402 15.132 128.706 14.724C129.018 14.308 129.306 13.82 129.57 13.26C129.834 12.7 130.062 12.092 130.254 11.436L130.746 7.488ZM129.93 15.144C129.65 15.608 129.35 16.028 129.03 16.404C128.718 16.772 128.386 17.088 128.034 17.352C127.682 17.616 127.31 17.82 126.918 17.964C126.526 18.108 126.118 18.18 125.694 18.18C125.222 18.18 124.786 18.088 124.386 17.904C123.986 17.72 123.642 17.444 123.354 17.076C123.066 16.708 122.838 16.256 122.67 15.72C122.51 15.176 122.43 14.548 122.43 13.836C122.43 13.108 122.522 12.4 122.706 11.712C122.89 11.016 123.15 10.364 123.486 9.756C123.822 9.14 124.226 8.576 124.698 8.064C125.17 7.552 125.698 7.112 126.282 6.744C126.866 6.376 127.494 6.092 128.166 5.892C128.846 5.684 129.558 5.58 130.302 5.58C130.838 5.58 131.37 5.624 131.898 5.712C132.426 5.792 132.942 5.936 133.446 6.144L131.982 18H130.626C130.298 18 130.074 17.916 129.954 17.748C129.834 17.58 129.774 17.372 129.774 17.124L129.93 15.144Z" fill="#1DBF4A"/>
</svg>
